<svg width="299" height="30" viewBox="0 0 299 30" fill="none" xmlns="http://www.w3.org/2000/svg">
<path d="M2.79343 0.162491C4.46071 -0.239501 6.6525 0.163649 8.31994 0.725997C8.84251 0.900372 8.58384 1.69725 8.94481 1.85342C9.65079 2.15784 10.304 1.76349 11.002 2.12709C11.2334 2.25148 10.9549 3.51286 11.1973 3.61446C12.5257 4.16217 13.7767 3.83296 15.1203 4.09168C21.7388 5.36819 28.239 5.79737 34.9333 6.3263C37.1406 6.49963 39.8299 7.62463 42.1051 7.10949C42.3707 7.04822 42.2047 5.94381 42.2547 5.85235C43.0391 4.45219 42.7902 6.68568 43.3104 6.97871C45.3753 8.13565 47.6633 8.22212 49.64 7.7822C50.481 7.5918 49.6218 5.40171 50.4781 6.62848C50.5375 6.71135 50.3317 7.88672 50.5635 8.01038C51.0892 8.28847 52.0815 8.07197 52.4881 8.16226C53.2717 8.34221 53.401 8.32953 54.1411 8.33794C55.1528 8.35965 56.3599 8.93513 57.4435 8.66185C57.6747 8.60003 57.36 7.39867 57.728 7.1914C58.0965 6.98447 59.0754 7.07994 59.4072 7.36141C59.739 7.64303 59.6048 8.58983 59.6647 8.80625C60.1573 10.6329 61.2719 8.09091 61.417 8.02726C64.0646 6.94148 66.3508 8.36997 68.8427 8.34913C70.7344 8.33025 72.754 7.84003 74.5545 7.89331C76.6996 7.96145 78.5215 8.60136 80.6041 8.47528C80.8239 8.46336 80.5567 7.05015 80.8252 7.03273C83.6771 6.84893 86.5114 6.98415 89.3585 7.9203C89.6441 8.01543 89.2852 9.2602 89.571 9.42952C91.3205 10.4388 94.0943 12.8728 95.093 7.457C96.2748 7.66029 97.7094 7.86889 98.7727 8.95211C99.4583 9.64928 98.8061 11.0071 99.6386 10.424C99.8264 10.2941 99.5731 9.11049 99.8553 9.00527C101.044 8.56339 102.347 8.93992 103.522 8.31964C103.76 8.19069 103.688 7.12913 103.754 6.93744C104.315 5.38484 105.282 7.93867 105.49 8.12332C107.077 9.50001 108.225 8.94635 109.694 8.97036C110.035 8.97653 109.623 7.55274 109.951 7.50743C111.651 7.29157 113.414 7.40234 115.085 8.02414C115.456 8.16588 115.124 9.38328 115.302 9.51319C116.086 10.0712 116.244 7.77498 116.996 8.26583C117.155 8.36636 117.073 9.40719 117.102 9.52124C117.565 11.3116 117.94 8.76788 118.055 8.711C119.517 7.9346 120.472 10.5811 121.886 10.1959C122.055 10.1472 121.664 8.83354 122.14 8.77697C125.312 8.39232 128.671 8.73136 131.82 9.76305C132.31 9.92168 131.968 10.9128 131.999 11.0345C132.513 12.9356 132.82 10.3816 132.979 10.2845C134.231 9.58427 135.419 11.7163 136.252 8.67127C141.581 9.69031 146.867 7.948 152.163 10.6355C152.23 10.6665 152.118 11.9241 152.253 11.9807C153.869 12.6755 153.547 10.7244 154.597 8.32842C154.862 7.72677 155.699 10.6054 155.772 10.8163C156.041 11.5936 155.78 13.4651 155.87 13.6154C156.608 14.7952 156.447 8.61281 157.432 8.6042C157.463 8.6143 157.341 9.75327 157.425 9.86587C157.684 10.2194 157.936 9.76547 158.189 10.1555C158.771 11.0582 158.996 14.0613 159.863 12.3068C159.972 12.0791 159.779 8.57291 160.659 8.73269C161.01 8.79937 162.562 8.72883 162.998 8.9532C163.434 9.17731 163.143 10.3096 163.175 10.3583C164.355 11.845 163.915 12.4674 164.517 14.6762C165.118 16.8766 164.92 11.6201 165.155 11.0317C165.391 10.4449 166.257 11.6723 166.471 12.0995C166.684 12.527 166.426 13.2469 166.615 13.4883C167.869 15.0656 167.143 10.875 167.547 10.0378C168.499 8.05548 169.277 11.9495 170.163 12.3256C170.403 12.4272 170.202 11.5404 170.415 11.456C171.256 11.1332 171.771 12.3464 172.723 11.2244C172.879 11.0416 173.639 8.69217 174.152 10.4091C174.225 10.6567 174.03 11.6297 174.39 11.8449C174.929 12.168 175.898 12.3739 176.473 12.0452C176.898 11.802 176.399 10.2043 176.938 10.6981C177.178 10.9185 176.743 11.8581 177.193 12.1942C177.641 12.5302 178.779 12.4814 179.212 12.4461C179.645 12.4102 179.4 11.1973 179.434 11.1153C179.643 10.6452 180.469 10.054 180.542 10.055C184.242 9.88187 187.668 11.906 191.267 11.2043C191.549 11.151 191.352 9.87162 191.395 9.85029C192.36 9.30722 191.62 12.7173 192.303 13.8524C192.188 11.2543 192.59 11.7222 193.27 11.4326C193.598 11.2909 193.412 10.2858 193.442 10.1826C193.919 8.65094 194.271 10.6228 194.361 11.0261C194.694 12.5095 195.033 10.7518 195.26 11.7433C195.486 12.7274 194.991 14.1919 195.644 14.1688C195.821 13.2373 195.32 10.8094 195.814 10.4121C197.677 8.90914 201.186 10.7931 202.694 10.9811C204.199 11.169 204.683 10.9941 205.561 11.3245C207.147 11.9217 206.556 10.1219 207.532 9.2897C208.512 8.45758 208.063 12.8988 208.211 13.8519C208.356 14.8046 208.502 13.8219 208.678 14.345C208.854 14.8679 208.485 15.5191 208.892 15.7132C209.299 15.9071 210.397 14.2031 210.534 13.2046C210.824 11.0891 210.309 8.87436 211.388 9.64653C211.45 9.69237 211.257 10.8607 211.494 10.977C213.378 11.8628 215.329 11.9054 217.209 12.6874C217.468 12.7967 217.246 14.0964 217.397 14.1748C218.965 14.9946 218.392 12.8095 219.232 10.3721C219.061 13.6093 219.548 15.5859 220.735 15.5971C221.448 15.6049 221.316 14.1924 221.77 13.1932C221.907 12.892 222.418 13.8591 222.505 13.1938C222.791 11.0191 222.3 8.59013 223.529 9.55039C223.583 9.59606 223.42 10.7865 223.606 10.8573C224.808 11.3207 224.936 9.04712 226.23 8.76321C227.244 8.54044 229.059 9.91412 230.217 10.1317C230.217 13.7701 231.303 12.9296 231.73 10.4182C232.481 10.5159 233.29 10.3686 234.018 10.7105C234.268 10.827 234.111 11.8815 234.143 11.9951C234.638 13.7772 234.948 11.3346 235.109 11.2378C236.858 10.296 238.301 12.1361 239.964 10.3172C240.023 10.2517 240.102 7.72385 240.563 9.56608C240.593 9.69308 240.047 10.8466 240.836 10.9302C241.624 11.0141 243.119 12.3588 244.206 11.1805C244.469 10.8968 245.125 8.84071 245.673 10.44C245.746 10.6572 245.673 11.3825 245.779 11.7851C246.121 13.0681 246.287 10.5125 246.694 12.6799C247.101 14.8472 247.929 16.4669 249.023 14.9623C249.058 14.9185 249.305 12.8922 249.653 12.9219C250.207 12.971 250.996 13.3875 251.575 13.3704C251.851 13.3615 251.666 12.1056 251.714 12.0822C253.571 11.3653 254.904 12.4771 256.902 12.9501C257.269 13.0393 258.308 11.318 259.025 12.6686C259.813 14.147 259.055 20.3243 260.832 18.8418C261.549 18.2489 262.409 10.4126 263.731 14.4607C266.236 13.4386 268.573 15.4993 271.083 14.047C271.196 13.9827 271.539 11.7949 271.806 11.8229C272.201 11.8686 272.425 12.8885 272.708 12.9539C273.893 13.2536 274.969 12.3725 276.111 12.5008C276.544 12.5473 276.4 13.6044 276.917 13.6599C277.433 13.7145 277.768 12.3215 278.472 12.9885C279.003 13.4969 279.551 16.3359 280.254 16.6625C280.262 13.8585 280.744 13.913 281.595 13.1671C281.758 13.0224 281.575 12.0477 281.652 11.9289C281.966 11.4238 282.264 12.2306 282.561 11.6811C282.634 11.5491 282.631 10.5916 282.689 10.4296C283.188 9.01606 284.041 11.1643 284.187 11.5384C284.748 12.9589 284.998 11.7118 285.424 12.2698C285.85 12.8278 285.224 13.533 285.719 13.87C286.747 14.5671 288.06 14.4036 289.098 14.4406C289.513 14.4495 289.221 13.1732 289.281 13.1448C290.135 12.8149 291.011 14.1687 291.469 11.6195C292.107 18.1985 291.982 10.9775 293.215 12.2871C293.312 12.393 293.456 15.5053 293.089 15.9648C292.721 16.4239 292.153 15.4545 291.644 16.1704C291.523 16.3384 290.846 19.2602 290.752 19.4376C290.016 20.8236 289.879 16.1723 289.838 15.917C289.373 13.1626 288.542 16.311 288.319 16.5296C287.299 17.5315 286.423 16.8832 285.569 17.5991C285.011 18.0619 284.976 21.1096 284.535 21.0192C283.067 20.7208 282.527 16.4733 281.171 20.1684C280.88 20.9565 281.197 24.2851 280.118 21.6733C280.05 21.5086 279.247 19.1181 278.802 20.6366C278.746 20.828 278.754 21.7987 278.679 21.8807C278.178 22.4115 277.835 21.6405 277.288 22.0146C276.74 22.3886 276.082 22.9452 275.451 22.6202C275.071 22.4258 274.573 20.6206 274.389 20.1791C273.868 18.9071 273.334 21.002 273.006 19.4596C272.676 17.9095 273.285 15.5479 272.44 14.5506C272.426 17.0726 272.372 19.6615 272.339 22.1979C270.501 22.1215 268.687 21.3181 266.844 21.4419C266.616 21.4598 266.859 22.814 266.614 22.8681C265.581 23.0904 264.672 22.13 263.602 22.5221C262.774 22.8307 261.874 24.2723 261.009 24.6397C260.459 21.7576 259.178 22.7459 258.241 22.4885C257.913 22.3995 257.929 21.6287 257.694 21.3788C256.809 20.4548 257.238 23.0021 257 23.405C255.977 25.1247 255.85 19.3534 254.632 19.5042C254.567 19.5102 253.798 22.5922 253.691 22.7845C253.008 24.0385 253.569 21.7144 253.135 21.49C252.343 21.0799 251.79 20.3488 250.869 21.2562C250.601 21.5249 249.966 23.4469 249.431 21.9671C249.361 21.7734 249.392 20.7562 249.336 20.697C248.324 19.711 248.319 22.9065 247.752 23.9926C247.185 25.0784 246.283 22.8786 246.098 22.244C245.614 20.6026 246.455 21.5387 246.48 21.3772C246.767 19.4545 246.122 19.7895 245.627 19.6306C245.534 16.4979 244.844 16.6906 245.113 19.4784C245.143 19.7828 245.526 19.4881 245.627 19.6306C245.213 22.7075 244.456 23.1063 243.597 20.2393C243.195 18.8956 243.556 17.3233 242.366 17.9056C241.826 18.1685 242.05 20.3243 241.576 20.9157C240.492 22.265 239.059 20.2621 237.936 20.5867C237.528 20.7046 237.934 21.8828 237.655 22.004C236.916 22.3295 236.256 21.4478 235.515 21.9067C235.448 21.9498 235.621 23.1848 235.39 23.2021C233.636 23.3575 232.102 22.576 230.27 22.5663C229.384 22.5622 227.806 23.2546 226.888 23.1237C225.297 22.9041 223.329 21.1197 221.974 21.5655C221.09 21.8509 221.293 23.086 220.919 23.931C220.198 25.5688 218.882 22.6526 218.704 22.2008C218.699 22.1859 219.459 21.8893 219.048 21.2573C218.803 19.9365 218.713 22.195 218.704 22.2008C218.588 21.909 217.063 21.6385 216.763 21.8769C216.599 22.0072 216.699 23.178 216.614 23.2238C214.585 24.2858 212.548 24.5972 210.479 24.0633C210.443 24.0399 210.489 22.7292 210.403 22.6905C209.204 22.1159 208.449 23.724 207.47 24.6823C206.49 25.6401 205.707 25.3268 205.108 23.0813C204.366 23.3695 203.293 22.3822 202.674 21.7829C202.056 21.1836 201.988 23.7348 201.934 23.7856C200.26 25.4108 199.276 23.9574 197.526 23.7419C196.695 23.6351 195.048 24.0161 194.15 24.3011C193.441 24.5305 193.008 23.9357 192.355 24.3223C192.267 24.3739 192.364 25.509 192.338 25.5529C191.615 26.9165 191.948 24.1379 191.794 23.643C191.234 21.8436 190.89 20.8855 189.959 21.74C189.744 21.9357 189.142 25.9375 188.749 26.1739C188.239 26.474 188.423 25.0398 187.889 25.3905C187.843 25.4192 187.859 26.3031 187.528 26.2663C185.991 26.1073 184.313 25.6042 182.718 25.7035C182.5 25.7137 182.788 27.1139 182.474 27.1517C180.997 27.3278 179.376 27.2868 177.932 26.6402C177.577 26.4766 177.792 25.4934 177.713 25.2024C177.229 23.4419 176.576 26.009 176.466 26.0586C173.838 27.3078 171.805 25.0021 169.125 26.1243C168.979 26.1901 167.872 28.9449 167.353 26.5922C167.318 26.4356 166.805 24.0284 166.377 25.6795C166.35 25.7828 166.668 27.0217 166.127 26.8989C165.585 26.7763 164.721 27.6108 163.969 26.2523C163.731 25.8244 163.159 23.4235 162.47 25.345C162.426 25.4791 161.372 29.8206 160.965 26.8328C160.899 26.341 160.943 23.1761 160.117 24.8041C159.959 25.1198 160.254 25.8237 159.836 26.2672C159.195 26.9509 158.333 26.1091 157.549 27.5241C157.412 27.7746 156.837 29.9264 156.354 28.2993C156.278 28.0445 156.411 26.9871 156.161 26.8705C154.97 26.3114 153.732 27.0264 152.522 26.3035C152.093 26.0495 152.3 24.3402 151.852 23.8855C151.403 23.4309 150.504 22.9968 150.043 23.7804C149.583 24.5644 150.11 27.2829 149.414 27.5054C146.386 28.4718 143.37 26.8952 140.34 26.6819C139.89 26.65 140.269 27.6216 139.607 27.6445C137.166 27.7333 132.958 28.6749 130.826 26.6194C129.118 24.9731 131.245 23.6968 129.944 23.0309C129.316 22.7133 128.66 25.8824 128.509 25.9831C127.04 27.005 126.005 25.6101 124.68 26.0491C124.406 26.1402 124.684 27.421 124.451 27.4844C123.655 27.7121 122.813 27.1453 122.052 27.2551C121.71 27.3073 121.78 28.2865 121.465 28.213C120.711 28.0485 120.043 27.6411 119.303 26.7279C119.235 26.6447 119.678 25.423 119.121 25.3814C118.219 25.3176 117.094 24.4193 116.064 25.3617C115.758 25.6451 115.761 27.8841 115.089 26.3423C114.948 26.0203 115.107 23.3307 114.353 25.6588C114.226 26.0457 112.953 29.1876 112.304 27.1722C112.133 26.6418 111.69 24.4446 111.323 24.7929C111.273 24.8484 111.482 26.0496 111.176 26.169C110.098 26.5687 108.965 26.448 107.858 26.8322C107.562 26.9371 108.012 28.1786 107.571 28.2953C106.358 28.618 104.839 28.3113 103.649 27.9298C103.21 27.7867 103.506 26.7538 103.473 26.6419C102.948 24.8206 102.662 27.2856 102.493 27.4303C101.44 28.2973 100.627 27.1458 99.6541 27.4585C99.3855 27.5417 99.5842 28.7148 99.5313 28.8198C98.9826 29.8467 99.3823 27.7349 99.0291 27.5048C98.0396 26.8532 96.942 26.9549 95.9468 27.1117C95.5812 27.171 96.0017 28.5299 95.6735 28.5674C93.7314 28.8151 91.7099 28.6984 89.8079 27.9604C89.4498 27.819 89.6675 26.7689 89.5914 26.5299C89.0671 24.8578 88.3305 27.1483 88.1589 27.3672C87.3789 28.3665 87.0671 27.4413 86.3735 27.6191C82.9854 28.5035 78.7908 27.9175 75.5846 27.5596C71.4066 27.0994 68.1605 26.1236 64.1812 26.4093C63.9283 26.4262 64.1928 27.8194 63.9749 27.8518C61.1612 28.2069 58.3852 27.6805 55.5663 28.1023C55.335 28.1345 55.6776 29.4546 55.3066 29.5506C54.5456 29.7569 53.5795 29.6915 52.806 29.2744C52.4287 29.0735 52.9253 27.9354 52.5457 27.7564C51.6618 27.3369 50.7167 27.249 49.8131 27.4671C49.4286 27.5628 50.0187 28.9113 49.5182 28.9303C46.1091 29.0873 42.7617 29.3427 39.304 27.6145C39.067 27.4958 38.8413 24.7485 38.3425 25.279C38.3098 26.0421 38.3179 26.9394 38.3068 27.7549C33.3457 28.2274 28.4259 27.3075 23.4469 27.1936C23.237 27.1891 23.6095 28.6431 23.2031 28.6418C20.8512 28.636 18.5701 29.0548 16.1548 27.6234C15.9151 27.4834 16.0204 24.9205 15.3196 25.3127C15.196 25.3842 14.1389 25.733 13.8687 26.2911C13.8321 26.3752 14.0334 27.5698 13.6923 27.607C11.7097 27.8019 9.62891 27.5428 7.64362 26.8254C7.3232 26.7073 7.65502 25.4315 7.42672 25.3363C5.80737 24.6711 4.05741 25.651 2.50661 24.5051C1.46854 23.7335 1.83615 21.5295 1.27276 19.3662C1.19308 19.061 0.553186 19.0168 0.51165 17.7563C0.40546 14.5865 0.691951 11.1129 0.542157 7.73451C0.510416 7.00682 -0.340876 7.79653 0.154454 6.0342C0.189092 5.91624 0.80618 5.3283 0.95513 4.73058C1.05885 4.31732 0.858346 3.0364 1.07208 2.50685C1.2858 1.97779 1.53175 3.05101 1.8878 2.42813C2.24363 1.79758 2.07552 0.339985 2.79343 0.162491ZM199.892 19.1044C199.315 17.8833 199.261 22.3702 199.869 21.2927C199.898 21.2353 199.921 19.1643 199.892 19.1044ZM268.675 17.9341C267.918 15.9603 267.429 18.8733 267.964 20.398C268.498 21.9211 268.905 18.5324 268.675 17.9341ZM276.372 16.4377C275.493 14.8834 275.399 21.246 276.321 19.9537C276.375 19.8807 276.424 16.528 276.372 16.4377ZM3.81388 18.7321C3.80563 18.6725 3.34549 18.6175 3.3349 18.6767C3.09965 20.1032 4.01974 20.2121 3.81388 18.7321ZM284.01 14.8135C283.733 13.9548 282.959 14.9535 283.303 16.0213C283.58 16.8804 284.355 15.8818 284.01 14.8135ZM170.202 14.5153C170.193 14.4485 169.863 14.3905 169.872 14.7684C169.902 15.9854 170.359 15.6388 170.202 14.5153ZM297.009 14.6531C295.087 14.4265 293.887 9.17916 295.982 9.75811C296.362 9.86286 295.177 11.4394 295.663 11.91C296.55 12.7672 297.114 9.46368 298.026 11.2257C298.191 11.5483 297.119 14.6777 297.005 14.6604C297.007 14.658 297.008 14.6555 297.009 14.6531ZM199.528 13.7179C199.516 13.6587 199.06 13.6055 199.049 13.6643C198.812 15.0903 199.732 15.1983 199.528 13.7179ZM150.95 11.8704C150.924 11.7442 149.865 11.6331 149.831 11.7498C149.294 14.0825 151.436 14.3141 150.95 11.8704ZM230.236 10.2287C230.724 8.79249 231.318 8.61979 231.727 10.4164C231.232 10.3242 230.734 10.3135 230.236 10.2287Z" fill="#FF7B00"/>
</svg>
