<svg width="1200" height="700" viewBox="0 0 1200 700" fill="none" xmlns="http://www.w3.org/2000/svg">
  <rect width="1200" height="700" rx="36" fill="#DDEBFF"/>
  <circle cx="1050" cy="108" r="180" fill="#C9DEFF"/>
  <circle cx="1050" cy="108" r="112" fill="#B5D1FA"/>
  <rect x="86" y="78" width="1028" height="544" rx="28" fill="#F9FBFF" stroke="#BBD3F4" stroke-width="2"/>
  <rect x="86" y="78" width="1028" height="62" rx="28" fill="#FFFFFF"/>
  <circle cx="128" cy="109" r="7" fill="#FF8F8F"/>
  <circle cx="151" cy="109" r="7" fill="#FFD36E"/>
  <circle cx="174" cy="109" r="7" fill="#72D79C"/>
  <rect x="226" y="99" width="168" height="20" rx="10" fill="#E9EEF6"/>
  <rect x="126" y="184" width="242" height="394" rx="22" fill="#17233A"/>
  <rect x="158" y="224" width="114" height="16" rx="8" fill="#71809A"/>
  <rect x="158" y="263" width="172" height="42" rx="14" fill="#4D8CE8"/>
  <rect x="158" y="329" width="178" height="12" rx="6" fill="#42506A"/>
  <rect x="158" y="355" width="142" height="12" rx="6" fill="#42506A"/>
  <rect x="158" y="402" width="178" height="82" rx="16" fill="#22314D"/>
  <rect x="405" y="184" width="314" height="176" rx="22" fill="#FFFFFF" stroke="#DCE5F1"/>
  <rect x="439" y="221" width="104" height="14" rx="7" fill="#AAB8CB"/>
  <rect x="439" y="257" width="158" height="42" rx="12" fill="#17233A"/>
  <path d="M439 330C476 303 501 326 535 292C569 258 598 294 632 249C653 222 674 221 690 225" stroke="#4D8CE8" stroke-width="8" stroke-linecap="round"/>
  <rect x="747" y="184" width="325" height="176" rx="22" fill="#FFFFFF" stroke="#DCE5F1"/>
  <rect x="782" y="221" width="116" height="14" rx="7" fill="#AAB8CB"/>
  <circle cx="817" cy="301" r="33" fill="#DDEBFF"/>
  <circle cx="895" cy="301" r="33" fill="#C5DCFF"/>
  <circle cx="973" cy="301" r="33" fill="#A9CBFB"/>
  <rect x="405" y="388" width="667" height="190" rx="22" fill="#FFFFFF" stroke="#DCE5F1"/>
  <rect x="439" y="424" width="124" height="14" rx="7" fill="#AAB8CB"/>
  <rect x="439" y="467" width="599" height="16" rx="8" fill="#EEF2F7"/>
  <rect x="439" y="504" width="526" height="16" rx="8" fill="#EEF2F7"/>
  <rect x="439" y="541" width="376" height="16" rx="8" fill="#EEF2F7"/>
</svg>
